<?xml version="1.0" encoding="iso-8859-1"?>
<!-- Generator: Adobe Illustrator 19.0.0, SVG Export Plug-In . SVG Version: 6.00 Build 0)  -->
<svg version="1.1" id="Layer_1" xmlns="http://www.w3.org/2000/svg" xmlns:xlink="http://www.w3.org/1999/xlink" x="0px" y="0px"
	 viewBox="0 0 512 512" style="enable-background:new 0 0 512 512;" xml:space="preserve">
<g>
	<rect x="39.999" y="64" style="fill:#CBBBA0;" width="216.004" height="32"/>
	<rect x="279.995" y="79.998" style="fill:#CBBBA0;" width="168.001" height="88.003"/>
</g>
<rect x="248" y="192.002" style="fill:#F9B233;" width="216.004" height="256.004"/>
<rect x="296.003" y="400.003" style="fill:#CBBBA0;" width="119.998" height="48"/>
<rect x="48" y="88.002" style="fill:#FAC15C;" width="199.996" height="360.004"/>
<polygon style="fill:#BE1622;" points="392,116.162 371.836,116.162 371.836,96 356.163,96 356.163,116.162 336,116.162 
	336,131.836 356.163,131.836 356.163,152 371.836,152 371.836,131.836 392,131.836 "/>
<path style="fill:#1D1D1B;" d="M471.838,440.163V184.163h-48v-8.327h32V72.163H272.163v103.673h31.999v8.327h-48.326v-104H40.163
	v360.001H0v15.674h512v-15.674h-40.162V440.163z M287.837,87.837h152.326v72.326H287.837V87.837z M319.836,175.836h88.326v8.327
	h-88.326V175.836z M456.164,199.837v240.327h-32.326v-48H288.163v48h-32.326V199.837H456.164z M408.164,440.163H303.838v-32.326
	h104.326V440.163z M55.837,95.836h184.326v344.327H55.837V95.836z"/>
<rect x="288.166" y="223.997" style="fill:#FFFFFF;" width="15.674" height="31.999"/>
<g>
	<rect x="328.165" y="223.997" style="fill:#1D1D1B;" width="15.674" height="31.999"/>
	<rect x="368.165" y="223.997" style="fill:#1D1D1B;" width="15.674" height="31.999"/>
</g>
<rect x="408.164" y="223.997" style="fill:#FFFFFF;" width="15.674" height="31.999"/>
<rect x="288.166" y="279.994" style="fill:#1D1D1B;" width="15.674" height="31.999"/>
<rect x="328.165" y="279.994" style="fill:#FFFFFF;" width="15.674" height="31.999"/>
<g>
	<rect x="368.165" y="279.994" style="fill:#1D1D1B;" width="15.674" height="31.999"/>
	<rect x="408.164" y="279.994" style="fill:#1D1D1B;" width="15.674" height="31.999"/>
	<rect x="288.166" y="336.002" style="fill:#1D1D1B;" width="15.674" height="31.999"/>
	<rect x="328.165" y="336.002" style="fill:#1D1D1B;" width="15.674" height="31.999"/>
</g>
<rect x="368.165" y="336.002" style="fill:#FFFFFF;" width="15.674" height="31.999"/>
<g>
	<rect x="408.164" y="336.002" style="fill:#1D1D1B;" width="15.674" height="31.999"/>
	<rect x="80.166" y="112.004" style="fill:#1D1D1B;" width="15.674" height="31.999"/>
</g>
<rect x="120.165" y="112.004" style="fill:#FFFFFF;" width="15.674" height="31.999"/>
<g>
	<rect x="160.164" y="112.004" style="fill:#1D1D1B;" width="15.674" height="31.999"/>
	<rect x="200.163" y="112.004" style="fill:#1D1D1B;" width="15.674" height="31.999"/>
</g>
<rect x="80.166" y="168.001" style="fill:#FFFFFF;" width="15.674" height="32"/>
<rect x="120.165" y="168.001" style="fill:#1D1D1B;" width="15.674" height="32"/>
<rect x="160.164" y="168.001" style="fill:#FFFFFF;" width="15.674" height="32"/>
<g>
	<rect x="200.163" y="168.001" style="fill:#1D1D1B;" width="15.674" height="32"/>
	<rect x="80.166" y="223.997" style="fill:#1D1D1B;" width="15.674" height="31.999"/>
	<rect x="120.165" y="223.997" style="fill:#1D1D1B;" width="15.674" height="31.999"/>
	<rect x="160.164" y="223.997" style="fill:#1D1D1B;" width="15.674" height="31.999"/>
</g>
<rect x="200.163" y="223.997" style="fill:#FFFFFF;" width="15.674" height="31.999"/>
<rect x="80.166" y="279.994" style="fill:#1D1D1B;" width="15.674" height="31.999"/>
<g>
	<rect x="120.165" y="279.994" style="fill:#FFFFFF;" width="15.674" height="31.999"/>
	<rect x="160.164" y="279.994" style="fill:#FFFFFF;" width="15.674" height="31.999"/>
</g>
<g>
	<rect x="200.163" y="279.994" style="fill:#1D1D1B;" width="15.674" height="31.999"/>
	<rect x="80.166" y="336.002" style="fill:#1D1D1B;" width="15.674" height="31.999"/>
</g>
<rect x="120.165" y="336.002" style="fill:#FFFFFF;" width="15.674" height="31.999"/>
<g>
	<rect x="160.164" y="336.002" style="fill:#1D1D1B;" width="15.674" height="31.999"/>
	<rect x="200.163" y="336.002" style="fill:#1D1D1B;" width="15.674" height="31.999"/>
</g>
<rect x="80.166" y="391.999" style="fill:#FFFFFF;" width="15.674" height="32"/>
<rect x="120.165" y="391.999" style="fill:#1D1D1B;" width="15.674" height="32"/>
<rect x="160.164" y="391.999" style="fill:#FFFFFF;" width="15.674" height="32"/>
<g>
	<rect x="200.163" y="391.999" style="fill:#1D1D1B;" width="15.674" height="32"/>
	<rect x="39.999" y="56.163" style="fill:#1D1D1B;" width="216.004" height="15.674"/>
</g>
<g>
</g>
<g>
</g>
<g>
</g>
<g>
</g>
<g>
</g>
<g>
</g>
<g>
</g>
<g>
</g>
<g>
</g>
<g>
</g>
<g>
</g>
<g>
</g>
<g>
</g>
<g>
</g>
<g>
</g>
</svg>
